name C:\Users\u0101727\Documents\MyRepositories\upper-imu-dc\Results\main_tracking\Case_47\FLX03_angularVelocities_bodyFrame.mot
datacolumns 4
datarows 141
range 0.51000000 1.91000000
endheader 
time	radius_imu_x	radius_imu_y	radius_imu_z	
          0.51000000	          0.63573209	         -2.89720803	         -0.46783973	
          0.52000000	          0.63581285	         -2.90052772	         -0.46940544	
          0.53000000	          0.63697927	         -2.90706774	         -0.46903729	
          0.54000000	          0.63896577	         -2.91795856	         -0.46815147	
          0.55000000	          0.64147927	         -2.93345352	         -0.46715671	
          0.56000000	          0.64420792	         -2.95323418	         -0.46622378	
          0.57000000	          0.64684014	         -2.97642953	         -0.46544765	
          0.58000000	          0.64907430	         -3.00172234	         -0.46490547	
          0.59000000	          0.65061716	         -3.02748320	         -0.46466086	
          0.60000000	          0.65118948	         -3.05194820	         -0.46475319	
          0.61000000	          0.65054688	         -3.07341791	         -0.46518450	
          0.62000000	          0.64850231	         -3.09045461	         -0.46591749	
          0.63000000	          0.64493216	         -3.10204314	         -0.46688516	
          0.64000000	          0.63974536	         -3.10766920	         -0.46800215	
          0.65000000	          0.63284451	         -3.10728656	         -0.46917382	
          0.66000000	          0.62411254	         -3.10118262	         -0.47030583	
          0.67000000	          0.61342784	         -3.08979495	         -0.47130942	
          0.68000000	          0.60069310	         -3.07355407	         -0.47210470	
          0.69000000	          0.58585629	         -3.05279008	         -0.47262371	
          0.70000000	          0.56891872	         -3.02769613	         -0.47281212	
          0.71000000	          0.54993700	         -2.99833153	         -0.47263183	
          0.72000000	          0.52902377	         -2.96465367	         -0.47205935	
          0.73000000	          0.50633998	         -2.92657581	         -0.47108065	
          0.74000000	          0.48207971	         -2.88404829	         -0.46968700	
          0.75000000	          0.45646517	         -2.83716861	         -0.46787164	
          0.76000000	          0.42975977	         -2.78632689	         -0.46562962	
          0.77000000	          0.40228191	         -2.73235258	         -0.46296134	
          0.78000000	          0.37439375	         -2.67657983	         -0.45987524	
          0.79000000	          0.34645077	         -2.62075734	         -0.45638859	
          0.80000000	          0.31872797	         -2.56681898	         -0.45252614	
          0.81000000	          0.29136533	         -2.51663126	         -0.44831992	
          0.82000000	          0.26436383	         -2.47184213	         -0.44381666	
          0.83000000	          0.23762504	         -2.43385386	         -0.43908909	
          0.84000000	          0.21100800	         -2.40384753	         -0.43424636	
          0.85000000	          0.18437914	         -2.38277576	         -0.42943770	
          0.86000000	          0.15764026	         -2.37129409	         -0.42484221	
          0.87000000	          0.13072895	         -2.36965957	         -0.42064978	
          0.88000000	          0.10360202	         -2.37765437	         -0.41704398	
          0.89000000	          0.07623038	         -2.39458345	         -0.41419681	
          0.90000000	          0.04861542	         -2.41935191	         -0.41227787	
          0.91000000	          0.02079738	         -2.45057997	         -0.41146026	
          0.92000000	         -0.00718296	         -2.48670093	         -0.41190383	
          0.93000000	         -0.03535559	         -2.52603599	         -0.41372306	
          0.94000000	         -0.06383748	         -2.56687889	         -0.41696799	
          0.95000000	         -0.09275241	         -2.60762997	         -0.42166235	
          0.96000000	         -0.12214325	         -2.64690466	         -0.42785759	
          0.97000000	         -0.15197683	         -2.68354330	         -0.43563477	
          0.98000000	         -0.18225022	         -2.71650278	         -0.44503331	
          0.99000000	         -0.21307627	         -2.74474523	         -0.45597080	
          1.00000000	         -0.24461713	         -2.76726025	         -0.46823954	
          1.01000000	         -0.27687156	         -2.78323213	         -0.48162579	
          1.02000000	         -0.30949241	         -2.79231821	         -0.49608029	
          1.03000000	         -0.34208320	         -2.79437366	         -0.51146595	
          1.04000000	         -0.37437264	         -2.78916561	         -0.52736930	
          1.05000000	         -0.40573782	         -2.77673583	         -0.54345796	
          1.06000000	         -0.43495587	         -2.75757875	         -0.55962612	
          1.07000000	         -0.46042739	         -2.73233646	         -0.57579197	
          1.08000000	         -0.48033320	         -2.70163847	         -0.59180768	
          1.09000000	         -0.49266514	         -2.66588287	         -0.60755637	
          1.10000000	         -0.49533849	         -2.62623067	         -0.62290413	
          1.11000000	         -0.48716607	         -2.58011791	         -0.63751061	
          1.12000000	         -0.46953797	         -2.53591837	         -0.65024941	
          1.13000000	         -0.46451673	         -2.46766347	         -0.65575363	
          1.14000000	         -0.48665996	         -2.43371212	         -0.67752816	
          1.15000000	         -0.52465745	         -2.43398884	         -0.70219581	
          1.16000000	         -0.55169478	         -2.40009114	         -0.72687715	
          1.17000000	         -0.56534180	         -2.37406003	         -0.75003738	
          1.18000000	         -0.58303758	         -2.33122948	         -0.76987809	
          1.19000000	         -0.61681614	         -2.32854302	         -0.80657795	
          1.20000000	         -0.65633964	         -2.34891094	         -0.84981483	
          1.21000000	         -0.69220676	         -2.35108217	         -0.88307157	
          1.22000000	         -0.72448665	         -2.36937398	         -0.91966485	
          1.23000000	         -0.75239074	         -2.37923601	         -0.96158106	
          1.24000000	         -0.79505937	         -2.40767978	         -0.98937311	
          1.25000000	         -0.84722989	         -2.44922409	         -1.02550859	
          1.26000000	         -0.89707410	         -2.49146734	         -1.06393071	
          1.27000000	         -0.94028956	         -2.53796759	         -1.10302743	
          1.28000000	         -0.97673610	         -2.58820857	         -1.14174800	
          1.29000000	         -1.00767592	         -2.64149193	         -1.17959667	
          1.30000000	         -1.03479498	         -2.69649434	         -1.21638633	
          1.31000000	         -1.05943684	         -2.75191995	         -1.25238225	
          1.32000000	         -1.08271154	         -2.80623166	         -1.28784442	
          1.33000000	         -1.10556882	         -2.85747720	         -1.32278494	
          1.34000000	         -1.12865035	         -2.90364479	         -1.35719602	
          1.35000000	         -1.15233529	         -2.94276889	         -1.39107415	
          1.36000000	         -1.17677175	         -2.97300718	         -1.42445207	
          1.37000000	         -1.20192786	         -2.99272459	         -1.45738594	
          1.38000000	         -1.22764541	         -3.00055413	         -1.48990468	
          1.39000000	         -1.25367275	         -2.99548412	         -1.52198689	
          1.40000000	         -1.27969427	         -2.97691319	         -1.55355407	
          1.41000000	         -1.30535774	         -2.94466004	         -1.58447836	
          1.42000000	         -1.33029852	         -2.89894195	         -1.61459500	
          1.43000000	         -1.35415914	         -2.84033935	         -1.64371361	
          1.44000000	         -1.37660642	         -2.76974732	         -1.67162545	
          1.45000000	         -1.39734741	         -2.68830678	         -1.69810557	
          1.46000000	         -1.41614035	         -2.59731593	         -1.72291042	
          1.47000000	         -1.43279936	         -2.49813506	         -1.74577603	
          1.48000000	         -1.44718972	         -2.39210254	         -1.76642007	
          1.49000000	         -1.45921683	         -2.28047445	         -1.78454807	
          1.50000000	         -1.46881736	         -2.16438959	         -1.79986237	
          1.51000000	         -1.47595677	         -2.04485515	         -1.81207022	
          1.52000000	         -1.48063392	         -1.92274795	         -1.82088994	
          1.53000000	         -1.48288735	         -1.79882621	         -1.82605507	
          1.54000000	         -1.48279675	         -1.67375094	         -1.82731776	
          1.55000000	         -1.48047586	         -1.54811361	         -1.82445125	
          1.56000000	         -1.47605780	         -1.42246237	         -1.81725011	
          1.57000000	         -1.46967789	         -1.29731906	         -1.80552648	
          1.58000000	         -1.46145897	         -1.17318309	         -1.78910185	
          1.59000000	         -1.45150150	         -1.05052246	         -1.76779669	
          1.60000000	         -1.43987781	         -0.92975851	         -1.74142244	
          1.61000000	         -1.42663134	         -0.81125681	         -1.70978031	
          1.62000000	         -1.41178219	         -0.69533191	         -1.67266709	
          1.63000000	         -1.39534241	         -0.58226070	         -1.62988240	
          1.64000000	         -1.37734771	         -0.47229351	         -1.58122906	
          1.65000000	         -1.35790461	         -0.36564520	         -1.52650085	
          1.66000000	         -1.33725472	         -0.26246398	         -1.46545669	
          1.67000000	         -1.31585405	         -0.16276793	         -1.39778483	
          1.68000000	         -1.29444696	         -0.06633692	         -1.32305886	
          1.69000000	         -1.27413854	          0.02752607	         -1.24067625	
          1.70000000	         -1.25637151	          0.12004772	         -1.14972549	
          1.71000000	         -1.24307583	          0.21356116	         -1.04882980	
          1.72000000	         -1.23569670	          0.30900231	         -0.93574219	
          1.73000000	         -1.23637003	          0.41384802	         -0.80763729	
          1.74000000	         -1.22512492	          0.54631687	         -0.69065885	
          1.75000000	         -1.24549711	          0.62911492	         -0.56990031	
          1.76000000	         -1.26357431	          0.71581560	         -0.46284387	
          1.77000000	         -1.28304058	          0.79337247	         -0.36475161	
          1.78000000	         -1.30284096	          0.86678898	         -0.27145857	
          1.79000000	         -1.32270262	          0.93619698	         -0.17997983	
          1.80000000	         -1.34206638	          1.00342070	         -0.08820089	
          1.81000000	         -1.36190492	          1.06613657	          0.00356270	
          1.82000000	         -1.38985998	          1.11296482	          0.09418068	
          1.83000000	         -1.41304065	          1.16072177	          0.18010060	
          1.84000000	         -1.43589795	          1.20036708	          0.26120107	
          1.85000000	         -1.45762080	          1.23312618	          0.33701367	
          1.86000000	         -1.47799957	          1.25930869	          0.40703954	
          1.87000000	         -1.49690324	          1.27975236	          0.47086968	
          1.88000000	         -1.51432825	          1.29527984	          0.52816295	
          1.89000000	         -1.53034059	          1.30671313	          0.57864949	
          1.90000000	         -1.54506852	          1.31479084	          0.62212683	
          1.91000000	         -1.55868607	          1.32013901	          0.65846597	
